<svg width="497" height="124" viewBox="0 0 497 124" fill="none" xmlns="http://www.w3.org/2000/svg">
<path fill-rule="evenodd" clip-rule="evenodd" d="M168.751 122V34.45H245.081C255.054 34.45 262.307 36.9433 266.841 41.93C271.487 46.8033 273.811 53.2633 273.811 61.31V122H249.161V64.2C249.161 57.4 245.761 54 238.961 54H193.401V122H168.751ZM316.592 122C307.412 122 300.386 119.677 295.512 115.03C290.639 110.383 288.202 103.753 288.202 95.14C288.202 86.64 290.639 80.0667 295.512 75.42C300.386 70.7733 307.412 68.45 316.592 68.45H381.872V64.37C381.872 57.4567 378.472 54 371.672 54H299.592V34.45H378.132C388.446 34.45 395.756 36.83 400.062 41.59C404.369 46.2367 406.522 52.81 406.522 61.31V122H316.592ZM321.012 102.45H381.872V88H321.012C318.859 88 317.159 88.68 315.912 90.04C314.779 91.2867 314.212 92.9867 314.212 95.14C314.212 97.2934 314.779 99.05 315.912 100.41C317.159 101.77 318.859 102.45 321.012 102.45ZM426.985 122V34.45H451.635V122H426.985ZM426.815 20V0.790008H451.805V20H426.815ZM472.015 122V0.450012H496.665V122H472.015ZM1.45998 122.85V103.3H84.76C89.52 103.3 91.9 100.637 91.9 95.31C91.9 90.0967 89.52 87.49 84.76 87.49H30.87C20.7833 87.49 13.1333 85.2233 7.91998 80.69C2.70664 76.0434 0.0999756 69.4133 0.0999756 60.8C0.0999756 52.0733 2.70664 45.3867 7.91998 40.74C13.2466 35.98 20.8966 33.6 30.87 33.6H108.39V53.15H32.06C27.1866 53.15 24.75 55.53 24.75 60.29C24.75 62.67 25.43 64.54 26.79 65.9C28.15 67.26 29.9066 67.94 32.06 67.94H89.18C98.02 67.94 104.763 70.2633 109.41 74.91C114.17 79.4433 116.55 86.0734 116.55 94.8C116.55 96.3768 116.474 97.8922 116.323 99.3464C119.544 96.1783 121.5 92.0338 121.5 86.5417C121.5 80.7665 121.418 75.9431 121.348 71.9009V71.9003V71.8997V71.8993V71.8988C121.198 63.1472 121.111 58.0577 122.061 54.899C122.107 53.9165 122.182 52.7894 122.291 51.5032C121.224 45.8713 119.48 40.6548 118.2 36.8263C117.682 35.2751 117.239 33.9517 116.949 32.921C116.141 32.9069 113.351 29.9929 112.69 28.5759C111.757 26.5738 112.014 24.4777 113.266 23.8942C114.517 23.3106 116.048 24.8544 116.981 26.8565C117.519 28.0101 118.15 30.5996 118.114 31.8143C118.57 32.7369 119.079 34.073 119.674 35.6334L119.674 35.6336C120.399 37.5377 121.252 39.7758 122.291 42.0043C124.087 45.8573 126.975 47.6129 128.484 48.5305C129.155 48.9386 129.554 49.1809 129.463 49.3683C130.637 49.0812 131.976 48.8048 133.5 48.4999C136.447 48.1784 139.055 48.4086 141.344 49.1154C141.502 48.965 141.809 48.7783 142.217 48.5305C143.726 47.6129 146.614 45.8573 148.41 42.0043C149.45 39.7759 150.302 37.5379 151.027 35.6338L151.028 35.6335C151.304 34.9075 151.562 34.2301 151.805 33.6203C151.361 32.8313 151.794 29.0028 152.436 27.6252C153.37 25.6231 155.141 24.473 156.393 25.0566C157.644 25.6401 157.445 27.8049 156.512 29.807C155.981 30.9446 154.439 33.0493 153.482 33.8295C153.215 34.6914 152.878 35.6987 152.501 36.8263C151.221 40.6548 149.477 45.8714 148.41 51.5032C150.571 55.7172 151.529 58.0437 151.691 59.0959C158.197 73.8885 153.87 101.135 143.5 122.546C122.75 122.546 105.362 122.656 91.8231 122.772C90.9632 122.824 90.0822 122.85 89.18 122.85H83.2791C80.5404 122.876 78.0156 122.902 75.7109 122.925H75.7107H75.7104H75.7101H75.7098C69.1343 122.992 64.3502 123.04 61.5002 123.04C61.4441 122.976 61.3888 122.913 61.3345 122.85H1.45998Z" fill="black"/>
</svg>
